<?xml version="1.0" encoding="UTF-8" standalone="no"?>
<!-- Created with Inkscape (http://www.inkscape.org/) -->

<svg
   width="468"
   height="468"
   viewBox="0 0 123.825 123.825"
   version="1.1"
   id="svg18298"
   inkscape:version="1.2.2 (b0a8486541, 2022-12-01)"
   sodipodi:docname="Logo-Ohne-Schrift.svg"
   xmlns:inkscape="http://www.inkscape.org/namespaces/inkscape"
   xmlns:sodipodi="http://sodipodi.sourceforge.net/DTD/sodipodi-0.dtd"
   xmlns="http://www.w3.org/2000/svg"
   xmlns:svg="http://www.w3.org/2000/svg">
  <sodipodi:namedview
     id="namedview18300"
     pagecolor="#505050"
     bordercolor="#eeeeee"
     borderopacity="1"
     inkscape:showpageshadow="0"
     inkscape:pageopacity="0"
     inkscape:pagecheckerboard="0"
     inkscape:deskcolor="#505050"
     inkscape:document-units="mm"
     showgrid="false"
     showguides="true"
     inkscape:zoom="1.2938725"
     inkscape:cx="341.99661"
     inkscape:cy="295.62419"
     inkscape:window-width="1568"
     inkscape:window-height="1285"
     inkscape:window-x="26"
     inkscape:window-y="23"
     inkscape:window-maximized="0"
     inkscape:current-layer="layer1">
    <sodipodi:guide
       position="63.596234,63.091619"
       orientation="1,0"
       id="guide20190"
       inkscape:locked="false" />
    <sodipodi:guide
       position="77.706009,63.091619"
       orientation="0,-1"
       id="guide20192"
       inkscape:locked="false" />
  </sodipodi:namedview>
  <defs
     id="defs18295" />
  <g
     inkscape:label="Ebene 1"
     inkscape:groupmode="layer"
     id="layer1">
    <path
       style="fill:#27ae60;fill-opacity:1;stroke-width:0.521462"
       d="m 61.114438,99.002231 c -3.316204,-1.028387 -5.966272,-4.651037 -5.969375,-8.160177 -0.0028,-2.79509 0.558928,-4.19269 2.551036,-6.35069 l 1.600981,-1.73432 V 74.96493 c 0,-4.285673 -0.21805,-7.928039 -0.484556,-8.09416 -0.266507,-0.166121 -3.271877,1.694373 -6.678605,4.134428 -5.842934,4.184993 -6.209592,4.553382 -6.468341,6.498981 -0.836288,6.288405 -8.630276,9.460115 -13.687263,5.569945 -5.215167,-4.011856 -4.718554,-11.703559 0.963593,-14.924441 1.566551,-0.887981 2.666186,-1.081418 5.460995,-0.960632 l 3.499462,0.151239 8.697357,-6.162151 8.697358,-6.16215 V 47.906343 40.79669 l -2.270956,-2.016089 c -2.871271,-2.549025 -4.039163,-5.025451 -4.071298,-8.632894 -0.03301,-3.707624 1.686383,-7.109013 4.705809,-9.309128 2.040806,-1.487043 2.623091,-1.645219 6.056399,-1.645219 3.393424,0 4.038157,0.169864 6.045625,1.59285 3.971932,2.815472 5.80584,7.740499 4.584999,12.313166 -0.432848,1.621239 -1.452989,3.160427 -3.420118,5.160285 l -2.803289,2.849913 v 6.942208 6.942203 l 4.024151,2.84186 c 13.546521,9.566578 13.753279,9.683477 16.632753,9.404429 3.569812,-0.345947 4.961602,0.0839 7.366472,2.275162 3.968603,3.616086 4.114793,8.566588 0.3692,12.502998 -2.38951,2.51125 -4.69233,3.27431 -7.995449,2.64933 -2.775036,-0.52506 -6.229017,-4.129067 -6.679363,-6.969506 -0.188359,-1.188042 -0.723235,-2.496621 -1.188614,-2.907959 -2.212534,-1.955645 -11.679884,-8.146862 -12.078188,-7.898594 -0.248023,0.154604 -0.450962,3.793897 -0.450962,8.087322 v 7.806217 l 1.481588,1.72022 c 2.078417,2.41317 2.672377,3.72274 2.672377,5.89212 0,3.97608 -2.710384,7.57017 -6.490571,8.606787 -2.378887,0.65236 -2.562995,0.65226 -4.673207,-0.002 z"
       id="path13326" />
    <ellipse
       style="opacity:0;fill:#2957a4;stroke-width:0"
       id="path20182"
       cx="70.068581"
       cy="81.14994"
       rx="34.172642"
       ry="28.060644" />
    <circle
       style="opacity:0;fill:#2957a4;stroke-width:0"
       id="path20186"
       cx="-0.22367181"
       cy="-0.37278631"
       r="53.570656" />
    <ellipse
       style="opacity:0;fill:#2957a4;stroke-width:0"
       id="path20188"
       cx="62.5658"
       cy="62.006649"
       rx="60.326"
       ry="59.82436" />
    <ellipse
       style="opacity:0;fill:#2957a4;stroke-width:0"
       id="path20194"
       cx="59.786018"
       cy="58.565075"
       rx="48.714832"
       ry="47.828575" />
    <circle
       style="fill:#ff0000;fill-opacity:0;fill-rule:evenodd;stroke:#2957a4;stroke-width:6.18206;stroke-dasharray:none;stroke-opacity:1"
       id="path20250"
       cx="62.261459"
       cy="61.937149"
       r="56.392685" />
  </g>
</svg>
